<?xml version="1.0" encoding="utf-8"?>
<!-- Generator: Adobe Illustrator 25.2.0, SVG Export Plug-In . SVG Version: 6.00 Build 0)  -->
<svg version="1.1" id="Layer_1" xmlns="http://www.w3.org/2000/svg" xmlns:xlink="http://www.w3.org/1999/xlink" x="0px" y="0px"
	 viewBox="0 0 89 88" style="enable-background:new 0 0 89 88;" xml:space="preserve">
<style type="text/css">
	.st0{opacity:0.8;}
	.st1{fill:#6600E5;}
	.st2{fill:#3B4186;}
	.st3{fill:#5361C5;}
	.st4{fill:#4A8BB7;}
	.st5{fill:#40C0A6;}
	.st6{fill:#37ED96;}
	.st7{fill:#3D0781;}
</style>
<g class="st0">
	<path class="st1" d="M30.8,13.7c3.7-4.8,14.3-8.2,21.4-4c7.2,4.1,13.6,27.8,8.6,32.7c-0.1,0.8-7.2,5.7-10.8,3.9
		c-3.6-1.8-2.9-10.3-5.9-13.4c-3-3.1-7.6-3.2-11.1-5.1C29.5,25.9,27,18.5,30.8,13.7z"/>
	<ellipse transform="matrix(0.6018 -0.7986 0.7986 0.6018 -1.4957 23.4986)" class="st2" cx="22.8" cy="13.2" rx="4.7" ry="5.8"/>
	<ellipse transform="matrix(0.766 -0.6428 0.6428 0.766 2.6704 21.54)" class="st3" cx="30.9" cy="7.1" rx="3.2" ry="3.7"/>
	<ellipse transform="matrix(0.9816 -0.1908 0.1908 0.9816 -3.926994e-02 7.2972)" class="st4" cx="37.9" cy="3.9" rx="3" ry="3.6"/>
	<ellipse transform="matrix(0.1736 -0.9848 0.9848 0.1736 33.9414 46.9359)" class="st5" cx="44.9" cy="3.2" rx="3.3" ry="2.8"/>
	<ellipse transform="matrix(0.3746 -0.9272 0.9272 0.3746 27.8032 51.0591)" class="st6" cx="51.8" cy="4.9" rx="2.9" ry="2.5"/>
	<path class="st7" d="M35.5,60.9c-3.8,4.7-4.8,15.7,0.9,21.8c5.6,6,30.2,7,33.8,1.1c0.7-0.3,3.9-8.3,1.4-11.4
		c-2.6-3.1-10.7-0.5-14.4-2.7c-3.7-2.2-4.8-6.7-7.5-9.7C47,56.9,39.3,56.2,35.5,60.9z"/>
	<ellipse transform="matrix(0.682 -0.7314 0.7314 0.682 -28.2807 41.0214)" class="st2" cx="33" cy="53" rx="4.7" ry="5.8"/>
	<ellipse transform="matrix(0.454 -0.891 0.891 0.454 -39.8732 60.0277)" class="st3" cx="29" cy="62.5" rx="3.2" ry="3.7"/>
	
		<ellipse transform="matrix(0.9994 -3.489950e-02 3.489950e-02 0.9994 -2.4279 1.0003)" class="st4" cx="27.4" cy="70" rx="3.6" ry="3"/>
	<ellipse transform="matrix(0.9205 -0.3907 0.3907 0.9205 -27.853 17.2368)" class="st5" cx="28.4" cy="77.1" rx="3.3" ry="2.8"/>
	<ellipse transform="matrix(0.8192 -0.5736 0.5736 0.8192 -42.0811 33.1951)" class="st6" cx="31.6" cy="83.3" rx="2.9" ry="2.5"/>
</g>
</svg>
