<?xml version="1.0" encoding="utf-8"?>
<!-- Generator: Adobe Illustrator 25.2.0, SVG Export Plug-In . SVG Version: 6.00 Build 0)  -->
<svg version="1.1" id="Layer_1" xmlns="http://www.w3.org/2000/svg" xmlns:xlink="http://www.w3.org/1999/xlink" x="0px" y="0px"
	 viewBox="0 0 480 512" style="enable-background:new 0 0 480 512;" xml:space="preserve">
<style type="text/css">
	.st0{fill:url(#SVGID_1_);}
	.st1{fill:#37ED96;}
	.st2{fill:#6600E5;}
	.st3{fill:#5361C5;}
	.st4{fill:#3B4186;}
	.st5{fill:#40C0A6;}
	.st6{fill:#4A8BB7;}
</style>
<linearGradient id="SVGID_1_" gradientUnits="userSpaceOnUse" x1="30.7268" y1="255.9" x2="449.6752" y2="255.9">
	<stop  offset="0" style="stop-color:#37ED96"/>
	<stop  offset="1" style="stop-color:#6600E5"/>
</linearGradient>
<path class="st0" d="M57.2,102.8l185.6-85.5c22.8-10.5,49.7-0.5,60.2,22.2l142.5,309.3c10.5,22.8,0.5,49.7-22.2,60.2l-185.6,85.5
	c-22.8,10.5-49.7,0.5-60.2-22.2L34.9,163C24.4,140.2,34.4,113.3,57.2,102.8z"/>
<path class="st1" d="M91.6,136.9l154.6-71.3c8.5-3.9,18.7-0.2,22.6,8.3l52.3,113.4c3.9,8.5,0.2,18.7-8.3,22.6l-154.6,71.3
	c-8.5,3.9-18.7,0.2-22.6-8.3L83.3,159.5C79.3,150.9,83.1,140.8,91.6,136.9z"/>
<path class="st2" d="M238,7L52.4,92.5c-28.5,13.1-40.9,46.8-27.8,75.3l142.5,309.3c13.1,28.5,46.8,40.9,75.3,27.8L428,419.3
	c28.5-13.1,40.9-46.8,27.8-75.3L313.3,34.8C300.2,6.3,266.4-6.2,238,7z M297.4,54.6l137.8,299c7.8,17.1,0.4,37.3-16.7,45.2
	l-185.6,85.5c-17.1,7.8-37.3,0.4-45.2-16.7L45.2,158.3c-7.8-17.1-0.4-37.3,16.7-45.2l185.6-85.5c17.1-7.8,37.3-0.4,45.2,16.7
	L297.4,54.6z"/>
<path class="st2" d="M232.2,347.1c5.7-2.6,8.2-9.4,5.6-15.1c-2.6-5.7-9.4-8.2-15.1-5.6l-10.3,4.8l-4.8-10.3
	c-2.6-5.7-9.4-8.2-15.1-5.6c-5.7,2.6-8.2,9.4-5.6,15.1l0,0l4.8,10.3l-10.3,4.8c-5.7,2.6-8.2,9.4-5.6,15.1c2.6,5.7,9.4,8.2,15.1,5.6
	l0,0l10.3-4.8l4.8,10.3c2.6,5.7,9.4,8.2,15.1,5.6c5.7-2.6,8.2-9.4,5.6-15.1l-4.8-10.3L232.2,347.1z"/>
<circle class="st1" cx="309.9" cy="298.8" r="11.4"/>
<circle class="st3" cx="321.1" cy="268.6" r="11.4"/>
<path class="st2" d="M241.5,55.3L86.9,126.6C72.6,133.1,66.4,150,73,164.2l52.3,113.4c6.6,14.2,23.4,20.5,37.7,13.9l154.6-71.3
	c14.2-6.6,20.5-23.4,13.9-37.7L279.2,69.2C272.6,55,255.7,48.8,241.5,55.3z M310.8,192.1c1.3,2.8,0.1,6.2-2.8,7.5l-154.6,71.3
	c-2.8,1.3-6.2,0.1-7.5-2.8L93.6,154.7c-1.3-2.8-0.1-6.2,2.8-7.5L251,75.9c2.8-1.3,6.2-0.1,7.5,2.8L310.8,192.1z"/>
<path class="st4" d="M281.3,399.4l-10.3,4.8c-5.7,2.6-8.2,9.4-5.6,15.1s9.4,8.2,15.1,5.6l0,0l10.3-4.8c5.7-2.6,8.2-9.4,5.6-15.1
	S287,396.8,281.3,399.4L281.3,399.4z"/>
<path class="st4" d="M332.9,375.7l-10.3,4.8c-5.7,2.6-8.2,9.4-5.6,15.1s9.4,8.2,15.1,5.6l10.3-4.8c5.7-2.6,8.2-9.4,5.6-15.1
	C345.3,375.5,338.6,373.1,332.9,375.7z"/>
<circle class="st5" cx="340.1" cy="309.9" r="11.4"/>
<circle class="st6" cx="351.2" cy="279.8" r="11.4"/>
</svg>
